# xmcd
#
# Track frame offsets:
#	150
#	11606
#	23938
#	35971
#	49556
#	63386
#	75528
#	85552
#	99164
#	113124
#	125006
#	135207
#	146719
#	158418
#	168618
#	181584
#	193049
#	205295
#	218641
#	233136
#	247585
#	260276
#	272888
#	283767
#	292042
#	304568
#	316386
#	330578
#	344298
#
# Disc length: 4732 seconds
#
# Revision: 0
# Processed by: cddbd v1.5.2PL0 Copyright (c) Steve Scherf et al.
# Submitted via: dBpowerAMP V4.0
#
DISCID=91127a1d
DTITLE=Various Artist - Country Ballads
DYEAR=1900
DGENRE=Ballad
TTITLE0=Oh, Lonesome Me
TTITLE1=Your Cheatin' Heart
TTITLE2=Me And Bobby McGee
TTITLE3=There Goes My Everything
TTITLE4=Welcome To My World
TTITLE5=I Love You Because
TTITLE6=Turn The Cards Slowly
TTITLE7=Back Street Affair
TTITLE8=Would You Lay With Me
TTITLE9=Crying
TTITLE10=Oh, Preety Woman
TTITLE11=Wheel Of Fortune
TTITLE12=Kentucky Waltz
TTITLE13=Tumbling Tumbleweeds
TTITLE14=South Of The Boarder (Down Mexico way)
TTITLE15=Night Life
TTITLE16=Blue Eyes Crying In The Rain
TTITLE17=The Tennessse Waltz
TTITLE18=Bury Me Under The Weeping Willow
TTITLE19=The Last Roundup 
TTITLE20=Don't Fence Me In
TTITLE21=High Noon
TTITLE22=Ballard Of Teenage Queen
TTITLE23=Guess Things Happen That Way
TTITLE24=Crazy Arms
TTITLE25=Okie From Muskogee
TTITLE26=Love Hurts
TTITLE27=Goodnight Irene
TTITLE28=Jump Right Out Of This Juke Box
EXTD=
EXTT0=
EXTT1=
EXTT2=
EXTT3=
EXTT4=
EXTT5=
EXTT6=
EXTT7=
EXTT8=
EXTT9=
EXTT10=
EXTT11=
EXTT12=
EXTT13=
EXTT14=
EXTT15=
EXTT16=
EXTT17=
EXTT18=
EXTT19=
EXTT20=
EXTT21=
EXTT22=
EXTT23=
EXTT24=
EXTT25=
EXTT26=
EXTT27=
EXTT28=
PLAYORDER=
